<svg width="100" height="100" viewBox="0 0 100 100" fill="none" xmlns="http://www.w3.org/2000/svg">
<g clip-path="url(#clip0_3362_2208)">
<rect y="81.25" width="100" height="18.75" rx="9.375" fill="#E83C77"/>
<path d="M7.8125 34.375C7.8125 29.1973 12.0098 25 17.1875 25C22.3652 25 26.5625 29.1973 26.5625 34.375L26.5625 65.625C26.5625 70.8027 22.3652 75 17.1875 75C12.0098 75 7.8125 70.8027 7.8125 65.625L7.8125 34.375Z" fill="#E83C77"/>
<path d="M7.8125 9.375C7.8125 4.19733 12.0098 0 17.1875 0C22.3652 0 26.5625 4.19733 26.5625 9.375C26.5625 14.5527 22.3652 18.75 17.1875 18.75C12.0098 18.75 7.8125 14.5527 7.8125 9.375Z" fill="#E83C77"/>
<path d="M64.0625 10.9375C48.5295 10.9375 35.9375 23.5295 35.9375 39.0625V65.625C35.9375 70.8027 40.1348 75 45.3125 75C50.4902 75 54.6875 70.8027 54.6875 65.625V39.0625C54.6875 33.8848 58.8848 29.6875 64.0625 29.6875C69.2402 29.6875 73.4375 33.8848 73.4375 39.0625V65.625C73.4375 70.8027 77.6348 75 82.8125 75C87.9902 75 92.1875 70.8027 92.1875 65.625V39.0625C92.1875 23.5295 79.5955 10.9375 64.0625 10.9375Z" fill="#E83C77"/>
</g>
<defs>
<clipPath id="clip0_3362_2208">
<rect width="100" height="100" fill="white"/>
</clipPath>
</defs>
</svg>
